Coordinates
version=1
nRows=32
nColumns=12
inDegrees=yes

Units are S.I. units (second, meters, Newtons, ...)
Angles are in degrees

endheader
time	SC_y	SC_z	SC_x	AC_y	AC_z	AC_x	GH_y	GH_z	GH_yy	EL_x	PS_y
       0.0              -43.39          34.15          31.35          31.72         0.2651          16.47         -16.77          69.91          7.331          110.5          54.83
   0.01972              -43.38          34.15          31.36          31.72         0.2624          16.47         -16.76          69.91          7.328          110.5          54.84
   0.03944              -43.38          34.15          31.36          31.72         0.2596          16.46         -16.76           69.9          7.325          110.5          54.84
   0.05916              -43.38          34.15          31.37          31.73         0.2566          16.46         -16.75           69.9          7.321          110.5          54.84
   0.07889              -43.37          34.15          31.38          31.73         0.2534          16.45         -16.74          69.89          7.318          110.5          54.85
   0.09861              -43.37          34.15          31.39          31.73         0.2499          16.44         -16.73          69.89          7.314          110.5          54.85
    0.1183              -43.36          34.14           31.4          31.73         0.2463          16.44         -16.72          69.88           7.31          110.5          54.86
    0.1381              -43.36          34.14          31.41          31.73         0.2424          16.43         -16.71          69.87          7.305          110.5          54.86
    0.1578              -43.35          34.14          31.42          31.73         0.2382          16.42          -16.7          69.87            7.3          110.5          54.87
    0.1775              -43.34          34.14          31.44          31.74         0.2337          16.41         -16.69          69.86          7.295          110.5          54.87
    0.1972              -43.34          34.14          31.45          31.74         0.2288           16.4         -16.68          69.85          7.289          110.5          54.88
    0.2169              -43.33          34.13          31.46          31.74         0.2236          16.39         -16.67          69.84          7.283          110.5          54.89
    0.2367              -43.32          34.13          31.48          31.74          0.218          16.38         -16.65          69.83          7.277          110.5          54.89
    0.2564              -43.31          34.13           31.5          31.75          0.212          16.37         -16.64          69.82           7.27          110.5           54.9
    0.2761               -43.3          34.12          31.52          31.75         0.2054          16.36         -16.62          69.81          7.263          110.5          54.91
    0.2958              -43.29          34.12          31.54          31.75         0.1983          16.34         -16.61           69.8          7.254          110.4          54.92
    0.3155              -43.28          34.12          31.56          31.75         0.1906          16.33         -16.59          69.79          7.246          110.4          54.93
    0.3353              -43.27          34.11          31.58          31.76         0.1822          16.31         -16.57          69.77          7.236          110.4          54.94
     0.355              -43.26          34.11          31.61          31.76          0.173          16.29         -16.55          69.76          7.225          110.4          54.95
    0.3747              -43.24           34.1          31.63          31.77          0.163          16.27         -16.52          69.74          7.214          110.4          54.97
    0.3944              -43.23           34.1          31.66          31.77         0.1519          16.25         -16.49          69.72          7.201          110.4          54.98
    0.4142              -43.21          34.09           31.7          31.78         0.1398          16.23         -16.46           69.7          7.187          110.4           55.0
    0.4339              -43.19          34.09          31.74          31.78         0.1264           16.2         -16.43          69.68          7.172          110.4          55.01
    0.4536              -43.17          34.08          31.78          31.79         0.1115          16.17          -16.4          69.66          7.155          110.4          55.03
    0.4733              -43.15          34.07          31.82           31.8        0.09497          16.14         -16.36          69.63          7.136          110.4          55.06
     0.493              -43.12          34.06          31.87           31.8        0.07652           16.1         -16.31           69.6          7.114          110.4          55.08
    0.5128               -43.1          34.05          31.93          31.81        0.05586          16.06         -16.26          69.57          7.091          110.4          55.11
    0.5325              -43.06          34.04           32.0          31.82        0.03262          16.02          -16.2          69.53          7.064          110.4          55.14
    0.5522              -43.03          34.03          32.07          31.83       0.006358          15.97         -16.14          69.49          7.034          110.4          55.17
    0.5719              -42.98          34.01          32.15          31.85       -0.02346          15.91         -16.07          69.44          6.999          110.3          55.21
    0.5916              -42.94           34.0          32.25          31.86       -0.05749          15.84         -15.99          69.38           6.96          110.3          55.25
    0.6114              -42.88          33.98          32.36          31.88       -0.09655          15.76         -15.89          69.32          6.915          110.3          55.31
